HIERARCHY
ROOT Hips
{
  OFFSET 5.70366 102.999 -1.77653
  CHANNELS 6 Xposition Yposition Zposition Zrotation Xrotation Yrotation
  JOINT RightUpLeg
  {
    OFFSET -8.9458 -8.66707 0.101652
    CHANNELS 3 Zrotation Xrotation Yrotation
    JOINT RightLeg
    {
      OFFSET 0 -44.4227 1.3727
      CHANNELS 3 Zrotation Xrotation Yrotation
      JOINT RightFoot
      {
        OFFSET 0.253549 -42.0924 -1.46059
        CHANNELS 3 Zrotation Xrotation Yrotation
        JOINT RightToes
        {
          OFFSET 0.04 -4.41509 8.4991
          CHANNELS 3 Zrotation Xrotation Yrotation
          End Site
          {
            OFFSET -0.08 -0.137448 9.77979
          }
        }
      }
    }
  }
  JOINT Spine
  {
    OFFSET 0 11.8905 0
    CHANNELS 3 Zrotation Xrotation Yrotation
    JOINT Spine1
    {
      OFFSET 0 25.6574 0.127663
      CHANNELS 3 Zrotation Xrotation Yrotation
      JOINT HEad
      {
        OFFSET 0 8.73416 0.011341
        CHANNELS 3 Zrotation Xrotation Yrotation
        End Site
        {
          OFFSET -0.29 12.7742 2.51395
        }
      }
      JOINT LeftShoulder1
      {
        OFFSET 8.99 -0.362252 -0.22
        CHANNELS 3 Zrotation Xrotation Yrotation
        JOINT LeftArm
        {
          OFFSET 10.2827 -0.00337999 0.322123
          CHANNELS 3 Zrotation Xrotation Yrotation
          JOINT LeftForeArm
          {
            OFFSET 26.2597 0.099144 -1.42434
            CHANNELS 3 Zrotation Xrotation Yrotation
            JOINT LeftHand
            {
              OFFSET 22.0902 0.085362 1.02216
              CHANNELS 3 Zrotation Xrotation Yrotation
              End Site
              {
                OFFSET 13.419 -0.6 1.50291
              }
            }
          }
        }
      }
      JOINT RightShoulder
      {
        OFFSET -8.99 -0.362252 -0.22
        CHANNELS 3 Zrotation Xrotation Yrotation
        JOINT RightArm
        {
          OFFSET -10.2827 -0.00338 0.322123
          CHANNELS 3 Zrotation Xrotation Yrotation
          JOINT RightForeArm
          {
            OFFSET -26.364 0.099144 -1.42434
            CHANNELS 3 Zrotation Xrotation Yrotation
            JOINT RightHand
            {
              OFFSET -22.0324 0.085362 1.02216
              CHANNELS 3 Zrotation Xrotation Yrotation
              End Site
              {
                OFFSET -13.3284 -0.6 1.50291
              }
            }
          }
        }
      }
    }
  }
  JOINT LeftUpLeg
  {
    OFFSET 8.9458 -8.66707 0.101652
    CHANNELS 3 Zrotation Xrotation Yrotation
    JOINT LeftLeg
    {
      OFFSET 0 -44.4227 1.3727
      CHANNELS 3 Zrotation Xrotation Yrotation
      JOINT LeftFoot
      {
        OFFSET -0.253549 -42.0924 -1.46059
        CHANNELS 3 Zrotation Xrotation Yrotation
        JOINT LeftToes
        {
          OFFSET -0.04 -4.41509 8.4991
          CHANNELS 3 Zrotation Xrotation Yrotation
          End Site
          {
            OFFSET 0.08 -0.047448 9.77979
          }
        }
      }
    }
  }
}
MOTION
Frames:	21
Frame Time:	0.0416667
-30.5315 96.187 -84.1617 -2.47509 3.94617 -73.0522 -2.69119 -23.0046 5.91736 -1.67444 73.3424 -5.6987 -1.68707 1.538 0.0137475 0.0462048 0.000530891 0.662642 -0.304708 10.7515 0.563154 -8.03776 -4.86511 1.34781 -2.23448 26.4264 8.28884 -33.2328 -4.12263 14.126 -33.3784 7.17854 6.19501 -12.7174 16.9728 -54.991 -4.11998 13.3451 -63.8695 30.1259 0.887403 -1.84352 42.7741 -5.03253 -10.8337 -0.599163 24.4218 54.2661 -1.76717 9.76181 13.1325 -13.263 -20.0122 -0.725746 1.24145 31.462 22.0372 20.5785 -13.1215 1.07576 -1.36696e-009 8.75212e-006 -1.45904e-008 
-36.2265 97.0912 -82.3971 -2.42219 4.05105 -67.1743 -2.77624 -28.9367 8.11227 -1.76056 66.3714 -11.6478 -5.81152 -1.92457 0.157103 0.0462048 0.000530891 0.662642 -0.837585 10.9796 -0.623415 -6.69898 -5.3906 0.0480618 -2.47547 25.5215 7.93454 -33.1791 -3.79852 13.3259 -38.0765 8.30981 -4.81968 -13.0975 17.2825 -56.9224 -3.68792 13.0857 -64.4148 31.6194 0.80214 -2.14143 39.6676 -4.44987 -16.5478 1.38855 23.2154 46.3907 -1.81117 9.75848 12.5574 -14.5287 -14.185 -6.50242 1.25634 29.379 22.2735 20.5144 -14.8352 1.40043 -1.36696e-009 8.75212e-006 -1.45904e-008 
-42.0127 97.6407 -80.5728 -2.26977 4.53008 -61.2315 -3.42305 -31.7595 11.1174 -1.12676 52.4053 -10.3589 -3.53244 -3.22098 -0.00443705 0.0462048 0.000530891 0.662642 -2.34836 10.8805 -1.9847 -4.21789 -5.64812 -1.6193 -3.07325 23.4348 8.49489 -31.0676 -2.98724 11.705 -44.1366 8.46321 -12.6689 -12.0771 18.822 -61.4693 -3.05392 12.6965 -65.241 32.0873 0.702248 -2.42107 36.6079 -3.76919 -22.657 2.47531 22.2818 44.3021 -1.18111 9.85644 12.6828 -14.0633 -9.0411 -9.56563 1.60516 27.8111 20.1237 19.7842 -17.0432 1.76476 -1.36696e-009 8.75212e-006 -1.45904e-008 
-47.982 97.8685 -78.5375 -2.09578 5.83857 -55.6425 -4.61419 -32.0354 13.4078 -0.502155 33.9566 -10.0772 1.54518 -4.96754 -0.189096 0.0462048 0.000530891 0.662642 -3.54244 9.82398 -3.35625 -1.37302 -5.44061 -3.26296 -3.05806 21.709 9.03032 -28.1295 -2.148 9.94896 -49.5567 7.92342 -18.5405 -10.7096 20.2543 -66.3945 -2.65882 12.4492 -65.7995 31.5233 0.716896 -2.36238 34.4671 -3.5508 -28.5255 2.94023 21.9352 45.2514 -0.391598 9.98106 12.8634 -11.6795 -4.7599 -10.1156 1.83205 26.5915 16.1283 20.6991 -18.9921 2.23053 -1.36696e-009 8.75212e-006 -1.45904e-008 
-53.982 97.5637 -76.3125 -2.14729 6.88555 -51.278 -5.60443 -30.6229 7.27808 -3.00035 17.3231 -2.59754 4.27775 -7.38199 -0.177082 0.0462048 0.000530891 0.662642 -4.64814 8.80914 -4.03946 1.0568 -5.16504 -4.18647 -2.14947 21.036 8.80949 -24.951 -1.48833 8.46045 -53.8736 7.23874 -22.4472 -9.46025 21.1089 -69.5761 -1.26143 11.4875 -66.51 30.9414 0.861896 -1.95272 32.7964 -3.4898 -33.3472 2.85937 22.0879 47.1632 -0.176829 10.0157 12.9472 -9.36726 -1.59069 -12.1219 1.31227 27.5572 15.3562 20.5072 -21.6935 2.72769 -1.36696e-009 8.75212e-006 -1.45904e-008 
-59.8539 96.8696 -73.9027 -2.74856 6.75623 -48.8453 -4.85432 -29.3878 1.16138 -3.61124 12.776 6.8119 7.46249 -6.57186 -0.233055 0.0462048 0.000530891 0.662642 -5.14841 9.09795 -3.88007 1.75551 -5.36042 -4.15868 -1.37049 20.7138 8.63894 -22.5455 -1.11451 7.55341 -56.5348 5.34512 -22.5396 -7.75729 21.8174 -71.9569 0.256249 10.4149 -67.0112 30.7783 0.935376 -1.74756 32.237 -2.88819 -34.7826 2.21039 22.6306 48.9351 -0.408756 9.97867 12.9205 -7.75213 -0.725489 -10.6428 0.927158 34.5796 12.8071 15.232 -22.0986 2.1055 -1.36696e-009 8.75212e-006 -1.45904e-008 
-65.4603 95.8415 -71.3677 -4.21958 6.23196 -46.5624 -3.7381 -29.1932 7.17128 -1.50534 20.3106 2.36759 11.9259 -2.73961 -0.65305 0.0462048 0.000530891 0.662642 -4.03387 10.2413 -3.67341 0.787212 -5.49082 -3.88489 -1.53402 19.9953 8.59173 -22.538 -1.09852 7.5 -56.418 2.16071 -18.8912 -6.97392 22.1112 -73.2157 -0.360899 10.8526 -66.6951 31.1481 0.788244 -2.15867 33.1967 -1.96728 -30.5583 2.08262 22.7237 48.9829 -0.671597 9.93636 12.7125 -5.42593 -4.18967 -5.83285 0.971006 49.7717 8.47511 10.3742 -14.5839 0.708154 -1.36696e-009 8.75212e-006 -1.45904e-008 
-70.3619 94.8394 -68.8537 -6.53927 6.5182 -42.7705 -2.43071 -28.2288 6.60636 -0.212377 28.3513 0.751063 14.7991 -2.52158 -0.803164 0.0462048 0.000530891 0.662642 -1.52084 11.4128 -3.62632 0.956013 -4.98977 -3.77112 -2.15003 19.4027 7.95829 -24.6736 -1.41966 8.28018 -54.1199 0.30791 -13.5744 -7.92078 21.5976 -70.1567 -2.14689 12.0855 -65.6548 32.6951 0.517226 -2.91374 33.4022 -0.653565 -21.078 2.6618 22.2447 47.3277 -0.905076 9.89947 12.414 -2.11179 -11.6047 -2.54022 1.57995 66.3375 8.03606 11.7688 -4.59023 -0.312406 -1.36696e-009 8.75212e-006 -1.45904e-008 
-74.5453 95.3397 -66.0441 -8.7857 7.19347 -38.5564 -1.09068 -24.7548 1.89148 -0.322007 30.8385 1.71249 14.0101 -6.35409 -0.331033 0.0462048 0.000530891 0.662642 0.97283 12.5117 -3.06383 2.34733 -4.85406 -3.2373 -1.85661 20.0385 6.75221 -26.9477 -1.88312 9.37078 -50.9649 1.388 -7.6844 -8.84129 20.3294 -62.5902 -2.96124 12.6051 -64.6763 34.9162 0.310611 -3.45984 31.7874 -0.265713 -9.87162 2.7471 22.1471 46.819 -1.12856 9.86484 12.3864 0.419667 -20.198 -0.0915859 2.35011 75.4971 7.47176 14.1621 -3.59412 -0.488047 -1.36696e-009 8.75212e-006 -1.45904e-008 
-78.5326 96.719 -62.7469 -9.63553 7.218 -35.3051 -0.159558 -19.5393 -0.507332 -0.353504 29.2341 0.652187 11.793 -8.67856 -0.0724059 0.0462048 0.000530891 0.662642 2.79909 13.271 -1.81027 1.48728 -5.27263 -1.76733 -0.209134 20.727 4.96896 -28.3027 -2.20129 10.0727 -46.3032 4.02385 -1.2188 -9.71699 18.6843 -55.4519 -3.48433 12.917 -63.8711 35.5531 0.248866 -3.61177 32.1935 -3.27783 -0.883128 2.54 22.4083 50.2405 -1.08685 9.87076 13.0472 1.15038 -27.8193 3.27182 2.18307 74.9667 5.93558 12.0468 -7.93822 0.0565895 -1.36696e-009 8.75212e-006 -1.45904e-008 
-82.3473 97.6228 -59.0927 -9.67668 7.32723 -32.7998 0.575588 -14.9501 -1.19906 -0.443778 27.3198 -1.31961 10.4038 -10.0299 0.0308298 0.0462048 0.000530891 0.662642 5.23037 13.4273 -0.374284 -1.10672 -5.40953 0.147224 1.43046 19.6147 2.72606 -29.0425 -2.33177 10.3108 -39.6858 7.08795 5.89709 -11.6784 16.9506 -52.6259 -4.80687 13.7565 -63.164 33.7237 0.288887 -3.50573 35.5185 -7.30259 5.47144 3.63107 22.1241 57.9093 -0.722133 9.93228 14.2853 1.359 -33.5448 7.51844 1.43957 66.9521 7.33451 9.1229 -10.9119 0.315036 -1.36696e-009 8.75212e-006 -1.45904e-008 
-85.9915 98.3246 -55.0498 -9.56336 7.75414 -30.3352 1.05752 -10.4864 -2.77611 -0.205516 24.7404 -2.6676 9.58168 -11.4452 0.124836 0.0462048 0.000530891 0.662642 6.8335 13.1205 0.805545 -2.95035 -5.91752 1.5274 2.01008 17.9442 1.08965 -28.6474 -2.25637 10.168 -33.6803 10.1131 14.2979 -13.3437 16.2129 -53.4483 -5.78955 14.4215 -63.3073 30.8693 0.408789 -3.16547 37.8841 -9.18837 11.0471 5.63134 21.9727 67.5032 -0.49076 9.9761 15.2768 1.34611 -36.3939 12.0948 1.11328 52.7165 12.19 8.9554 -11.8949 0.393641 -1.36696e-009 8.75212e-006 -1.45904e-008 
-89.4807 98.7391 -50.6004 -10.0108 7.87687 -27.1557 1.98429 -5.05582 -3.39843 0.509694 21.7277 -5.22177 9.3629 -11.8337 0.144807 0.0462048 0.000530891 0.662642 7.53738 12.6729 1.2133 -3.58221 -6.5148 1.91194 1.79291 17.7708 0.741016 -26.6043 -1.87038 9.38417 -30.9513 11.9232 23.6863 -13.2185 16.8806 -55.6029 -5.75423 14.4546 -63.9908 28.0464 0.576833 -2.63174 38.8585 -9.57773 16.3439 7.31421 22.2971 75.4492 -0.505329 9.97529 15.6386 0.155091 -35.3731 14.6582 1.34527 34.0551 18.2112 8.21482 -11.812 0.35993 -1.36696e-009 8.75212e-006 -1.45904e-008 
-92.825 98.3745 -45.6479 -10.8912 7.18224 -23.9755 3.03589 0.122286 -3.40047 0.453125 21.4549 -6.80009 12.7899 -12.8621 0.390412 0.0462048 0.000530891 0.662642 7.83227 11.9483 1.29604 -3.85565 -6.18407 2.01168 1.21366 18.8702 1.2121 -24.7212 -1.55053 8.69532 -30.352 11.7438 30.9424 -12.6823 17.5996 -57.3507 -5.64013 14.4056 -64.3225 26.1063 0.688092 -2.22746 39.4928 -8.79468 19.3059 9.0214 22.6485 80.1032 -0.372553 10.0002 15.7431 -1.86503 -31.7793 6.21911 -0.813735 17.9778 30.1157 7.4785 -9.98918 0.204965 -1.36696e-009 8.75212e-006 -1.45904e-008 
-95.6835 97.6576 -40.4016 -11.2965 6.02231 -22.0337 2.1682 1.69904 -7.25812 -0.460613 28.3887 -1.89684 19.0452 -12.4043 0.601156 0.0462048 0.000530891 0.662642 7.24103 11.4225 1.51585 -4.29118 -5.67323 2.33329 0.563668 20.2216 2.28456 -24.6149 -1.72977 9.28602 -30.505 9.80559 33.8934 -12.3708 17.8946 -57.9627 -5.55437 14.3551 -64.415 26.4354 0.805395 -1.88624 38.5799 -6.09599 18.1156 9.2723 22.8759 82.0089 -0.622853 9.95382 15.6251 -4.03306 -28.9265 -1.15233 -0.192554 13.1779 34.6178 11.2108 -6.72176 -0.0686246 -1.36696e-009 8.75212e-006 -1.45904e-008 
-98.0414 96.6526 -35.1275 -11.2056 4.5811 -20.5107 -0.770054 -2.65464 -8.32414 -0.288118 44.8946 2.27717 19.1868 -3.4893 -0.778324 0.0462048 0.000530891 0.662642 6.00886 11.5021 1.45802 -4.57075 -5.67192 2.27017 -0.211766 21.1473 4.08376 -25.7884 -2.2451 10.6852 -32.2246 6.84017 32.5499 -11.3091 18.294 -57.52 -4.73125 13.8003 -64.4805 28.3642 1.0098 -1.39802 36.9389 -1.88054 13.6504 6.17969 22.9385 80.9819 -2.08205 9.68935 15.3981 -6.4494 -27.6481 -0.994079 0.378687 17.8839 31.0106 20.6729 -5.20175 -0.420154 -1.36696e-009 8.75212e-006 -1.45904e-008 
-100.127 95.3847 -30.3147 -9.97724 2.5842 -17.8377 -3.78749 -10.8955 -5.87357 -0.370548 62.6442 4.2248 10.0485 7.85284 -1.3901 0.0462048 0.000530891 0.662642 3.10537 12.1661 1.08316 -4.74514 -5.23847 1.64901 -1.05752 21.3646 5.78304 -27.4078 -2.69139 11.6798 -35.5853 5.37354 26.1343 -10.4111 18.452 -56.1612 -3.5202 12.975 -64.4765 30.0019 1.12337 -1.18802 36.5033 2.15648 7.72095 2.56089 23.1198 75.2958 -3.58218 9.42155 15.2356 -9.50222 -26.7881 1.65142 1.04988 25.3936 27.546 26.6286 -7.64675 0.0322612 -1.36696e-009 8.75212e-006 -1.45904e-008 
-101.816 95.3258 -25.4346 -8.67334 0.928731 -13.7172 -3.88236 -19.3457 -0.325128 -1.48888 72.683 -0.730393 0.260416 7.40535 -0.121844 0.0462048 0.000530891 0.662642 0.726525 12.6042 0.529603 -4.97706 -4.7283 0.946112 -1.48798 21.7313 6.48008 -28.9106 -2.91396 11.9785 -38.8432 7.76194 14.9773 -10.8058 17.9001 -54.5453 -3.11417 12.6899 -64.3173 31.1811 1.04952 -1.46395 36.7691 5.12114 1.6679 2.42866 22.9102 64.2707 -3.46237 9.44848 14.9898 -12.1675 -23.7971 1.23018 1.33071 29.3239 25.8729 25.9843 -11.3463 0.913465 -1.36696e-009 8.75212e-006 -1.45904e-008 
-103.015 96.2224 -20.2228 -8.31169 0.202213 -8.07761 -1.80641 -26.2371 6.07635 -2.36195 72.6341 -9.76771 -4.62473 1.28636 0.251414 0.0462048 0.000530891 0.662642 0.12554 12.4919 -0.512624 -4.58462 -4.74403 -0.0976885 -1.50801 22.8896 6.44134 -29.5316 -2.85665 11.6797 -40.7563 12.2655 2.07052 -11.6537 17.3833 -54.3188 -3.281 12.78 -63.8853 32.1716 1.02501 -1.58632 36.7282 8.02753 -3.7827 4.07761 21.4476 51.346 -2.93621 9.5599 13.946 -14.0881 -18.2231 -3.17967 1.26053 28.3793 24.9169 25.4145 -13.5721 1.42581 -1.36696e-009 8.75212e-006 -1.45904e-008 
-103.92 96.9051 -15.0489 -8.27304 0.036296 -0.919739 -0.49971 -30.8236 12.1804 -1.93616 64.2384 -12.7725 -5.48351 -2.00107 0.139145 0.0462048 0.000530891 0.662642 -0.754333 12.2657 -1.85126 -2.52679 -4.99164 -1.69369 -1.46046 23.9686 5.98831 -28.9501 -2.52772 10.8801 -41.6388 15.8906 -10.1773 -12.4489 17.526 -56.5755 -2.84997 12.488 -63.8844 32.4957 1.07699 -1.4703 36.6986 10.9737 -9.67059 4.80718 20.0352 42.1475 -3.49039 9.50333 12.2905 -15.2038 -12.6125 -8.45022 1.4866 26.6171 23.743 25.7634 -14.8179 1.74521 -1.36696e-009 8.75212e-006 -1.45904e-008 
-104.63 97.3256 -9.79613 -8.51934 0.218643 6.51105 -0.619762 -32.806 17.6384 -1.12648 50.0633 -13.4396 -3.10611 -4.03554 -0.0486315 0.0462048 0.000530891 0.662642 -1.88415 12.0122 -2.92082 0.148338 -5.34107 -3.09935 -1.16208 23.8915 5.10519 -27.1229 -2.01906 9.74745 -42.6537 16.9294 -20.5537 -13.2571 18.1641 -60.629 -2.08599 12.0079 -64.7912 32.2911 0.947347 -1.79399 36.6421 11.3701 -17.2761 4.74092 19.7755 39.1981 -3.90017 9.45786 11.5666 -14.5566 -8.34612 -11.0247 1.56285 26.3562 19.5478 25.3298 -16.3923 2.09075 -1.36696e-009 8.75212e-006 -1.45904e-008 
